<svg width="1920" height="524" viewBox="0 0 1920 524" fill="none" xmlns="http://www.w3.org/2000/svg">
<path d="M0 124.2L40.1067 134.226C80.4267 144.04 160.64 164.093 240.64 131.026C320.64 97.9598 400.427 11.7731 480.427 1.53309C560.427 -8.70691 640.64 56.5731 720.64 100.733C800.64 144.893 880.427 167.506 960.427 160.893C1040.43 154.066 1120.64 117.8 1200.64 82.5998C1280.64 47.3998 1360.43 13.2664 1440.43 21.3731C1520.43 29.6931 1600.64 80.0397 1680.64 92.8397C1760.64 105.64 1840.43 80.8931 1880.11 68.3064L1920 55.9331V523.133H1880.11C1840.43 523.133 1760.64 523.133 1680.64 523.133C1600.64 523.133 1520.43 523.133 1440.43 523.133C1360.43 523.133 1280.64 523.133 1200.64 523.133C1120.64 523.133 1040.43 523.133 960.427 523.133C880.427 523.133 800.64 523.133 720.64 523.133C640.64 523.133 560.427 523.133 480.427 523.133C400.427 523.133 320.64 523.133 240.64 523.133C160.64 523.133 80.4267 523.133 40.1067 523.133H0V124.2Z" fill="#88E23B"/>
<path d="M0 164.733L40.1067 168.36C80.4267 171.773 160.64 179.026 240.64 189.906C320.64 201 400.427 215.933 480.427 225.106C560.427 234.493 640.64 237.907 720.64 234.493C800.64 230.867 880.427 220.2 960.427 195.667C1040.43 171.133 1120.64 132.733 1200.64 116.093C1280.64 99.2399 1360.43 104.36 1440.43 122.706C1520.43 141.266 1600.64 173.267 1680.64 187.56C1760.64 201.64 1840.43 198.226 1880.11 196.306L1920 194.6V523.133H1880.11C1840.43 523.133 1760.64 523.133 1680.64 523.133C1600.64 523.133 1520.43 523.133 1440.43 523.133C1360.43 523.133 1280.64 523.133 1200.64 523.133C1120.64 523.133 1040.43 523.133 960.427 523.133C880.427 523.133 800.64 523.133 720.64 523.133C640.64 523.133 560.427 523.133 480.427 523.133C400.427 523.133 320.64 523.133 240.64 523.133C160.64 523.133 80.4267 523.133 40.1067 523.133H0V164.733Z" fill="#61A12C"/>
<path d="M0 235.133L40.1067 231.506C80.4267 228.093 160.64 220.84 240.64 246.44C320.64 272.04 400.427 330.493 480.427 331.773C560.427 333.266 640.64 277.8 720.64 245.8C800.64 213.8 880.427 205.266 960.427 206.76C1040.43 208.04 1120.64 219.56 1200.64 229.16C1280.64 238.76 1360.43 246.44 1440.43 241.533C1520.43 236.626 1600.64 218.706 1680.64 237.266C1760.64 255.826 1840.43 310.44 1880.11 337.96L1920 365.266V523.133H1880.11C1840.43 523.133 1760.64 523.133 1680.64 523.133C1600.64 523.133 1520.43 523.133 1440.43 523.133C1360.43 523.133 1280.64 523.133 1200.64 523.133C1120.64 523.133 1040.43 523.133 960.427 523.133C880.427 523.133 800.64 523.133 720.64 523.133C640.64 523.133 560.427 523.133 480.427 523.133C400.427 523.133 320.64 523.133 240.64 523.133C160.64 523.133 80.4267 523.133 40.1067 523.133H0V235.133Z" fill="#3C641C"/>
<path d="M0 382.333L40.1067 387.027C80.4267 391.507 160.64 400.893 240.64 401.533C320.64 402.173 400.427 394.493 480.427 382.333C560.427 370.173 640.64 353.96 720.64 347.133C800.64 340.307 880.427 343.293 960.427 362.067C1040.43 380.84 1120.64 415.827 1200.64 438.867C1280.64 461.907 1360.43 473.427 1440.43 452.733C1520.43 432.04 1600.64 379.56 1680.64 355.24C1760.64 331.133 1840.43 335.4 1880.11 337.533L1920 339.667V523.133H1880.11C1840.43 523.133 1760.64 523.133 1680.64 523.133C1600.64 523.133 1520.43 523.133 1440.43 523.133C1360.43 523.133 1280.64 523.133 1200.64 523.133C1120.64 523.133 1040.43 523.133 960.427 523.133C880.427 523.133 800.64 523.133 720.64 523.133C640.64 523.133 560.427 523.133 480.427 523.133C400.427 523.133 320.64 523.133 240.64 523.133C160.64 523.133 80.4267 523.133 40.1067 523.133H0V382.333Z" fill="#1B2D0C"/>
</svg>
