<svg width="1920" height="238" viewBox="0 0 1920 238" fill="none" xmlns="http://www.w3.org/2000/svg">
<path d="M0 186L35.6 189.6C71.4 193.4 142.6 200.6 213.6 208.4C284.6 216 355.4 224 426.4 222.4C497.4 220.6 568.6 209.4 640 200.6C711.4 192 782.6 186 853.6 181C924.6 176 995.4 172 1066.4 181C1137.4 190 1208.6 212 1280 211.4C1351.4 210.6 1422.6 187.4 1493.6 186.6C1564.6 186 1635.4 208 1706.4 220.4C1777.4 232.6 1848.6 235.4 1884.4 236.6L1920 238V0H1884.4C1848.6 0 1777.4 0 1706.4 0C1635.4 0 1564.6 0 1493.6 0C1422.6 0 1351.4 0 1280 0C1208.6 0 1137.4 0 1066.4 0C995.4 0 924.6 0 853.6 0C782.6 0 711.4 0 640 0C568.6 0 497.4 0 426.4 0C355.4 0 284.6 0 213.6 0C142.6 0 71.4 0 35.6 0H0V186Z" fill="#88E23B"/>
<path d="M0 178L35.6 171.4C71.4 164.6 142.6 151.4 213.6 140.6C284.6 130 355.4 122 426.4 127C497.4 132 568.6 150 640 153C711.4 156 782.6 144 853.6 134.6C924.6 125.4 995.4 118.6 1066.4 115.4C1137.4 112 1208.6 112 1280 117C1351.4 122 1422.6 132 1493.6 141C1564.6 150 1635.4 158 1706.4 158.6C1777.4 159.4 1848.6 152.6 1884.4 149.4L1920 146V0H1884.4C1848.6 0 1777.4 0 1706.4 0C1635.4 0 1564.6 0 1493.6 0C1422.6 0 1351.4 0 1280 0C1208.6 0 1137.4 0 1066.4 0C995.4 0 924.6 0 853.6 0C782.6 0 711.4 0 640 0C568.6 0 497.4 0 426.4 0C355.4 0 284.6 0 213.6 0C142.6 0 71.4 0 35.6 0H0V178Z" fill="#4E8224"/>
<path d="M0 50L35.6 58.6C71.4 67.4 142.6 84.6 213.6 88C284.6 91.4 355.4 80.6 426.4 72.4C497.4 64 568.6 58 640 63.4C711.4 68.6 782.6 85.4 853.6 89.4C924.6 93.4 995.4 84.6 1066.4 76.6C1137.4 68.6 1208.6 61.4 1280 59.6C1351.4 58 1422.6 62 1493.6 64.4C1564.6 66.6 1635.4 67.4 1706.4 66C1777.4 64.6 1848.6 61.4 1884.4 59.6L1920 58V0H1884.4C1848.6 0 1777.4 0 1706.4 0C1635.4 0 1564.6 0 1493.6 0C1422.6 0 1351.4 0 1280 0C1208.6 0 1137.4 0 1066.4 0C995.4 0 924.6 0 853.6 0C782.6 0 711.4 0 640 0C568.6 0 497.4 0 426.4 0C355.4 0 284.6 0 213.6 0C142.6 0 71.4 0 35.6 0H0V50Z" fill="#1B2D0C"/>
</svg>
